<mxfile host="65bd71144e">
    <diagram id="djJ9EZLHGSXFdoPkd7vu" name="Página-1">
        <mxGraphModel dx="739" dy="482" grid="1" gridSize="10" guides="1" tooltips="1" connect="1" arrows="1" fold="1" page="1" pageScale="1" pageWidth="827" pageHeight="1169" math="0" shadow="0">
            <root>
                <mxCell id="0"/>
                <mxCell id="1" parent="0"/>
                <mxCell id="6" style="edgeStyle=none;html=1;fontSize=11;entryX=0.508;entryY=-0.026;entryDx=0;entryDy=0;entryPerimeter=0;" edge="1" parent="1" target="7">
                    <mxGeometry relative="1" as="geometry">
                        <mxPoint x="360" y="230" as="targetPoint"/>
                        <mxPoint x="360" y="180" as="sourcePoint"/>
                    </mxGeometry>
                </mxCell>
                <mxCell id="25" style="edgeStyle=none;html=1;fontSize=11;strokeColor=default;" edge="1" parent="1" source="7" target="23">
                    <mxGeometry relative="1" as="geometry"/>
                </mxCell>
                <mxCell id="7" value="Coordinador de &lt;br&gt;intercambio" style="text;html=1;align=center;verticalAlign=middle;resizable=0;points=[];autosize=1;strokeColor=none;fillColor=none;fontSize=11;" vertex="1" parent="1">
                    <mxGeometry x="310" y="210" width="100" height="40" as="geometry"/>
                </mxCell>
                <mxCell id="10" style="edgeStyle=none;html=1;fontSize=11;entryX=0;entryY=0.75;entryDx=0;entryDy=0;exitX=1;exitY=0.5;exitDx=0;exitDy=0;" edge="1" parent="1" source="23" target="11">
                    <mxGeometry relative="1" as="geometry">
                        <mxPoint x="360" y="360" as="targetPoint"/>
                        <mxPoint x="360" y="320" as="sourcePoint"/>
                    </mxGeometry>
                </mxCell>
                <mxCell id="27" style="edgeStyle=none;html=1;entryX=0.5;entryY=0;entryDx=0;entryDy=0;strokeColor=default;fontSize=11;" edge="1" parent="1" source="11" target="26">
                    <mxGeometry relative="1" as="geometry"/>
                </mxCell>
                <mxCell id="11" value="Presencia de Sistema organizacional y centralizado" style="rounded=0;whiteSpace=wrap;html=1;fontSize=11;" vertex="1" parent="1">
                    <mxGeometry x="450" y="250" width="120" height="60" as="geometry"/>
                </mxCell>
                <mxCell id="31" style="edgeStyle=none;html=1;entryX=0.5;entryY=0;entryDx=0;entryDy=0;strokeColor=default;fontSize=11;" edge="1" parent="1" source="14" target="30">
                    <mxGeometry relative="1" as="geometry"/>
                </mxCell>
                <mxCell id="14" value="Desarrolladores" style="text;html=1;strokeColor=none;fillColor=none;align=center;verticalAlign=middle;whiteSpace=wrap;rounded=0;fontSize=11;" vertex="1" parent="1">
                    <mxGeometry x="610" y="355" width="90" height="30" as="geometry"/>
                </mxCell>
                <mxCell id="17" value="&lt;span style=&quot;font-size: 12px; font-weight: 700;&quot;&gt;Estudiantes | TO - BE&lt;/span&gt;" style="swimlane;fontStyle=0;childLayout=stackLayout;horizontal=1;startSize=30;horizontalStack=0;resizeParent=1;resizeParentMax=0;resizeLast=0;collapsible=1;marginBottom=0;whiteSpace=wrap;html=1;fontSize=11;" vertex="1" parent="1">
                    <mxGeometry x="290" y="60" width="140" height="120" as="geometry"/>
                </mxCell>
                <mxCell id="18" value="Aplicación Móvil" style="text;strokeColor=none;fillColor=none;align=center;verticalAlign=middle;spacingLeft=4;spacingRight=4;overflow=hidden;points=[[0,0.5],[1,0.5]];portConstraint=eastwest;rotatable=0;whiteSpace=wrap;html=1;fontSize=11;" vertex="1" parent="17">
                    <mxGeometry y="30" width="140" height="30" as="geometry"/>
                </mxCell>
                <mxCell id="20" value="- Sistema de mensajería" style="text;strokeColor=none;fillColor=none;align=left;verticalAlign=middle;spacingLeft=4;spacingRight=4;overflow=hidden;points=[[0,0.5],[1,0.5]];portConstraint=eastwest;rotatable=0;whiteSpace=wrap;html=1;fontSize=11;" vertex="1" parent="17">
                    <mxGeometry y="60" width="140" height="30" as="geometry"/>
                </mxCell>
                <mxCell id="19" value="- Cuentas individuales" style="text;strokeColor=none;fillColor=none;align=left;verticalAlign=middle;spacingLeft=4;spacingRight=4;overflow=hidden;points=[[0,0.5],[1,0.5]];portConstraint=eastwest;rotatable=0;whiteSpace=wrap;html=1;fontSize=11;" vertex="1" parent="17">
                    <mxGeometry y="90" width="140" height="30" as="geometry"/>
                </mxCell>
                <mxCell id="23" value="-Información de los estudiantes&lt;br&gt;-Anuncios" style="rounded=0;whiteSpace=wrap;html=1;fontSize=11;" vertex="1" parent="1">
                    <mxGeometry x="300" y="270" width="120" height="60" as="geometry"/>
                </mxCell>
                <mxCell id="29" style="edgeStyle=none;html=1;strokeColor=default;fontSize=11;" edge="1" parent="1" source="26">
                    <mxGeometry relative="1" as="geometry">
                        <mxPoint x="610" y="370" as="targetPoint"/>
                        <Array as="points"/>
                    </mxGeometry>
                </mxCell>
                <mxCell id="26" value="Experiencia de usuario mas personalizada y mejorada" style="rounded=0;whiteSpace=wrap;html=1;fontSize=11;" vertex="1" parent="1">
                    <mxGeometry x="450" y="340" width="120" height="60" as="geometry"/>
                </mxCell>
                <mxCell id="32" style="edgeStyle=none;html=1;strokeColor=default;fontSize=11;" edge="1" parent="1" source="30" target="33">
                    <mxGeometry relative="1" as="geometry">
                        <mxPoint x="510" y="590" as="targetPoint"/>
                    </mxGeometry>
                </mxCell>
                <mxCell id="30" value="Entorno de desarrollo" style="rounded=0;whiteSpace=wrap;html=1;fontSize=11;" vertex="1" parent="1">
                    <mxGeometry x="595" y="405" width="120" height="60" as="geometry"/>
                </mxCell>
                <mxCell id="35" style="edgeStyle=none;html=1;entryX=1;entryY=0.5;entryDx=0;entryDy=0;strokeColor=default;fontSize=11;" edge="1" parent="1" source="33">
                    <mxGeometry relative="1" as="geometry">
                        <mxPoint x="570" y="505" as="targetPoint"/>
                    </mxGeometry>
                </mxCell>
                <mxCell id="33" value="Administradores" style="text;html=1;strokeColor=none;fillColor=none;align=center;verticalAlign=middle;whiteSpace=wrap;rounded=0;fontSize=11;" vertex="1" parent="1">
                    <mxGeometry x="610" y="490" width="90" height="30" as="geometry"/>
                </mxCell>
                <mxCell id="36" value="Mantenimiento y Actualizaciones" style="rounded=0;whiteSpace=wrap;html=1;fontSize=11;" vertex="1" parent="1">
                    <mxGeometry x="450" y="475" width="120" height="60" as="geometry"/>
                </mxCell>
            </root>
        </mxGraphModel>
    </diagram>
</mxfile>